<svg aria-hidden="true" style="position: absolute; width: 0; height: 0; overflow: hidden;" version="1.1" xmlns="http://www.w3.org/2000/svg" xmlns:xlink="http://www.w3.org/1999/xlink">
<defs>
<symbol id="icon-close" viewBox="0 0 32 32">
<path d="M19.141 16.123l10.676-10.668c0.36-0.42 0.548-0.96 0.527-1.513s-0.251-1.077-0.642-1.467c-0.391-0.391-0.915-0.62-1.469-0.641s-1.093 0.167-1.514 0.526l-10.676 10.558-10.742-10.734c-0.42-0.36-0.961-0.548-1.514-0.526s-1.077 0.25-1.469 0.641c-0.391 0.391-0.62 0.915-0.642 1.467s0.167 1.093 0.527 1.513l10.72 10.844-10.501 10.361c-0.23 0.197-0.417 0.439-0.549 0.711s-0.206 0.569-0.218 0.871 0.039 0.604 0.15 0.885c0.11 0.282 0.278 0.538 0.492 0.751s0.47 0.381 0.752 0.492c0.282 0.11 0.584 0.161 0.886 0.15s0.599-0.086 0.872-0.217c0.273-0.132 0.515-0.318 0.712-0.548l10.479-10.471 10.413 10.405c0.42 0.359 0.961 0.547 1.514 0.526s1.077-0.25 1.469-0.641c0.391-0.391 0.621-0.915 0.642-1.467s-0.167-1.093-0.527-1.512l-10.369-10.295z"></path>
</symbol>
 <symbol id="icon-tick" viewBox="0 0 40 32">
            <path d="M33.782 1.020c0.691-0.662 1.611-1.027 2.565-1.020s1.869 0.387 2.55 1.059c0.681 0.672 1.076 1.584 1.101 2.543s-0.321 1.891-0.966 2.598l-19.578 24.617c-0.337 0.365-0.743 0.657-1.195 0.86s-0.939 0.312-1.434 0.322c-0.495 0.009-0.986-0.082-1.445-0.268s-0.876-0.463-1.226-0.815l-12.984-13.054c-0.362-0.339-0.652-0.747-0.853-1.201s-0.309-0.944-0.318-1.441 0.082-0.99 0.267-1.451c0.185-0.461 0.461-0.879 0.81-1.231s0.766-0.628 1.224-0.814 0.949-0.277 1.443-0.269c0.494 0.009 0.981 0.118 1.433 0.32s0.858 0.494 1.195 0.857l10.275 10.325 17.042-21.83c0.031-0.038 0.063-0.074 0.098-0.109h-0.005z"></path>
        </symbol>
</defs>
</svg>
